<?xml version="1.0" encoding="UTF-8" standalone="no"?>
<svg xmlns="http://www.w3.org/2000/svg" xmlns:xlink="http://www.w3.org/1999/xlink" width="600" height="188" version="1.0">
  <defs>
    <linearGradient id="a">
      <stop offset="0" stop-color="#ddebdf"/>
      <stop offset="1" stop-color="#edfdf8"/>
    </linearGradient>
    <linearGradient id="h">
      <stop offset="0" stop-color="#edfdf8"/>
      <stop offset=".11266927" stop-color="#edfdf8"/>
      <stop offset=".18583558" stop-color="#a2d1c6"/>
      <stop offset=".30777946" stop-color="#a2d1c6"/>
      <stop offset=".40082908" stop-color="#92b7d6"/>
      <stop offset=".625" stop-color="#92b7d6"/>
      <stop offset=".7254464" stop-color="#7595bf"/>
      <stop offset="1" stop-color="#7595bf"/>
    </linearGradient>
    <linearGradient id="g">
      <stop offset="0" stop-color="#a2d1c6"/>
      <stop offset=".30777946" stop-color="#a2d1c6"/>
      <stop offset=".40082908" stop-color="#92b7d6"/>
      <stop offset=".625" stop-color="#92b7d6"/>
      <stop offset=".7254464" stop-color="#7595bf"/>
      <stop offset="1" stop-color="#7595bf"/>
    </linearGradient>
    <linearGradient id="c">
      <stop offset="0" stop-color="#a9cfcd"/>
      <stop offset="1" stop-color="#eefef9"/>
    </linearGradient>
    <linearGradient id="e">
      <stop offset="0" stop-color="#7595bf"/>
      <stop offset=".875" stop-color="#7595bf"/>
      <stop offset="1" stop-color="#92b7d6"/>
    </linearGradient>
    <linearGradient id="d">
      <stop offset="0" stop-color="#455b2e"/>
      <stop offset=".85714287" stop-color="#455b2e"/>
      <stop offset="1" stop-color="#768465"/>
    </linearGradient>
    <linearGradient id="f">
      <stop offset="0" stop-color="#8bc0c6"/>
      <stop offset=".6785714" stop-color="#8bc0c6"/>
      <stop offset="1" stop-color="#eefef9"/>
    </linearGradient>
    <linearGradient id="b">
      <stop offset="0" stop-color="#c7edef"/>
      <stop offset="1" stop-color="#eefef9"/>
    </linearGradient>
    <linearGradient xlink:href="#a" id="i" x1="192.62421" x2="197.375" y1="65.521515" y2="62.021515" gradientUnits="userSpaceOnUse"/>
    <linearGradient xlink:href="#b" id="j" x1="130.51373" x2="130.51373" y1="105.38046" y2="103.52637" gradientTransform="translate(-40)" gradientUnits="userSpaceOnUse"/>
    <linearGradient xlink:href="#b" id="k" x1="145.664" x2="144.95689" y1="117.13592" y2="116.34042" gradientUnits="userSpaceOnUse"/>
    <linearGradient xlink:href="#b" id="l" x1="136.86935" x2="136.20644" y1="126.10735" y2="125.44443" gradientUnits="userSpaceOnUse"/>
    <linearGradient xlink:href="#b" id="m" x1="145.664" x2="144.95689" y1="117.13592" y2="116.34042" gradientTransform="translate(57.27565 -.574526)" gradientUnits="userSpaceOnUse"/>
    <linearGradient xlink:href="#b" id="n" x1="145.70819" x2="144.8685" y1="115.67751" y2="114.83782" gradientTransform="translate(46.66904 13.39083)" gradientUnits="userSpaceOnUse"/>
    <linearGradient xlink:href="#b" id="p" x1="384.31253" x2="389.96939" y1="95.701752" y2="90.044899" gradientUnits="userSpaceOnUse"/>
    <linearGradient xlink:href="#c" id="s" x1="149.875" x2="150.25" y1="149.12808" y2="144.12808" gradientUnits="userSpaceOnUse"/>
    <linearGradient xlink:href="#b" id="w" x1="514.32574" x2="515.55347" y1="129.91866" y2="125.32247" gradientUnits="userSpaceOnUse"/>
    <radialGradient xlink:href="#d" id="o" cx="296.45197" cy="135.71054" r="16.330547" fx="296.45197" fy="135.71054" gradientTransform="matrix(3.179595 -.778724 .527512 2.153864 -713.3919 81.40284)" gradientUnits="userSpaceOnUse"/>
    <radialGradient xlink:href="#e" id="q" cx="344.74722" cy="148.90628" r="40.600868" fx="344.74722" fy="148.90628" gradientTransform="matrix(2.385977 -.0554447 .0194897 .838658 -472.8599 37.03575)" gradientUnits="userSpaceOnUse"/>
    <radialGradient xlink:href="#f" id="r" cx="304.25998" cy="120.5285" r="4.703938" fx="304.25998" fy="120.5285" gradientTransform="matrix(3.258839 .608807 -.413396 2.212837 -642.2335 -327.2127)" gradientUnits="userSpaceOnUse"/>
    <radialGradient xlink:href="#g" id="t" cx="301.90271" cy="119.65045" r="59.033546" fx="301.90271" fy="119.65045" gradientTransform="matrix(-2.466121 .697207 -.195589 -.691826 979.454 13.06977)" gradientUnits="userSpaceOnUse"/>
    <radialGradient xlink:href="#h" id="u" cx="431.13171" cy="31.938066" r="120.5192" fx="431.13171" fy="31.938066" gradientTransform="matrix(5.042145 -1.85077 .154371 .420566 -1751.807 836.959)" gradientUnits="userSpaceOnUse"/>
    <radialGradient xlink:href="#d" id="v" cx="299.45367" cy="135.21065" r="16.330547" fx="299.45367" fy="135.21065" gradientTransform="matrix(3.179595 -.778724 .527512 2.153864 -525.2428 96.99191)" gradientUnits="userSpaceOnUse"/>
    <radialGradient xlink:href="#f" id="x" cx="304.25998" cy="120.5285" r="4.703938" fx="304.25998" fy="120.5285" gradientTransform="matrix(3.258839 .608807 -.413396 2.212837 -450.2691 -319.1206)" gradientUnits="userSpaceOnUse"/>
  </defs>
  <g fill-rule="evenodd" transform="translate(2.068764 -.222374)">
    <path d="M182.25677 133.53196c.51608 2.47282.56091 4.86671 0 7.95495-10.96127-.8169-83.791373-5.19116-87.681238-6.54073-2.347523-.81446-10.281267-1.03944-12.197592.35355-1.831172 1.33109-5.572806 3.12955-6.540738 4.94975-2.43566 4.58026 2.717453 7.25733 7.247845 6.89429 5.156347-.4132 96.582863 9.42035 95.989743 10.6066-1.25 2.08087-.66513 6.90179 2.82843 8.66206 10.45678 5.26878 95.52992 8.45526 101.11627 2.47487 1.9131 11.74045 8.69946 16.4473 15.55635 10.78338 3.85668 1.5327 9.75653 1.59149 13.87697-.26517 1.82669 1.08363 3.65339 1.24731 5.48008 0 17.75749 5.648 17.68058-15.47845 12.99308-21.92031 15.43457-7.49532 28.75165-13.40254 41.54253-18.9151 12.46582 3.26612 25.21174 3.45118 38.00699 3.09359.31493 1.18768 1.14461 1.86059 2.12132 2.38649-1.52392.91334-2.10746 1.82669-2.65165 2.74003-1.30503-2.18843-16.37807-11.14495-17.94284 8.75045-.9534 12.12206 5.93632 25.78215 16.44024 13.25825 6.74593 2.87088 11.5842 2.56232 15.33537.44194 0 0 14.66703 9.96138 17.27993-10.51821 2.21014-17.32286-14.37779-16.17304-19.44544-8.66206.10804-1.69906.15145-2.94575.17678-4.06586 13.00604-1.33349 13.95972-4.6757 15.29118-7.95495 2.37125-.16154 4.89094-.47152 6.62913 0 .57127 4.29695-.65949 7.68567 10.96015 7.68978.88799 4.43279-5.57326 5.64669-2.82843 7.68979 3.82442 2.84669 11.39619-1.81976 13.34664-4.41942 9.52561.30376 18.65421.2105 25.54424-2.12132.3055 5.69755 34.43105 8.49812 39.4212-1.94454 6.74146 1.75 58.65822 16.21489 63.10928-.08839 1.09577-4.01357-2.86787-5.78737-12.02082-7.77817-11.67203-2.53871-65.45863-16.30059-65.67254-16.08668 5.90185-23.006423-16.06408-16.05499-35.97405-11.31371-3.55562-2.57626-17.67458-4.19221-27.84518-6.16711 18.73041-7.132338 39.33538-17.965028 55.75-26.25C503.7185 98.037614 518.72712 91.388185 523 88c7.6342 4.72684 13.97363.149192 13.75-12.25-.1082-5.999095-1.613-8.75-4-13 16.26207-16.155181 30.00751-30.114066 24.25-36.5-18.97661-21.0478793-51.14384-23.680791-77.5-15.75-78.19293 23.528915-147.71952 62.053215-199.30894 83.433983-6.25456.591329-22.18698.957592-57.03821.883883-5.07925-8.274425-36.77811-57.911116-43.02996-61.945066-4.28453-2.764558-7.50045-2.048098-10.8592-.545496-3.35876 1.502602-7.84581 2.508407-5.48008 13.788582.88913 4.239507 10.05993 33.413866 15.11441 48.17165-17.52997-.190057-137.632406-1.459025-148.669205-.353553-7.695118.770761-15.980304 6.166107-21.2132035 10.429827-15.5229708 12.64797.782239 14.98417 4.1730975 15.02602 16.964088.20938 45.21404 3.60454 82.62426 4.06586 1.831762 3.93619 4.239851 6.52761 7.071071 8.13173 9.00236-.68244 17.07468-.66735 24.74873-.35355 2.70549 3.93741 5.82106 3.97902 9.19239 1.59099 14.91616-.44743 30.19466.19216 45.43161.7071z"/>
    <path fill="#5effc2" d="m485 20.875 3.5-4.125 4.125 1.625-1.75 4.25-5.875-1.75zm15.5 1.25 2.625-3.75 7.375.125-2 3.5-8 .125zm20.625.625c.5636-7.309406 9.38393-6.634201 16.75-5.5-2.03846 3.083333-10.86307 3.666667-16.75 5.5z"/>
    <path fill="url(#i)" d="M182.625 94.875c11.83659.12581 23.39475.18202 36.5.625-6.60437-13.2448-30.82641-46.878988-39.625-59-2.1487-2.960069-4.5038-2.838515-7.75-1.75-3.12644 1.048357-4.875 2.0625-4.25 6 .67656 4.262308 9.25 40.125 15.125 54.125z"/>
    <path fill="#94b9d2" d="M6 112.875c2.5180787-5.6222 15.77788-14.289565 20.375-14.75-.174887 5.11809-15.997503 14.8332-20.375 14.75z"/>
    <path fill="url(#j)" d="M9.75 114.75c11.201923-6.61895 17.01317-12.03996 20.75-17 90.47191-.967556 190.94113 1.253268 251.5-.625-3.53553 8.23342-15.92755 23.14708-40 23.5-18.58621.27249-30.41671-.46917-36.75-.8125 2.7883-4.44951 7.00601-9.26768 2.9375-10.75-2.99217-1.09016-7.14199 4.3643-15.75 11-14.14862-.16194-27.57866-.4676-43.9375-.1875 4.94673-4.94824 8.82333-8.71789 5.75-11.125-2.48821-1.94883-11.15916 4.79403-18.75 12.625-44.79248-1.00736-80.935349-5.29425-125.75-6.625z"/>
    <path fill="url(#k)" d="M141.95169 119.65499c.76388-2.42169 5.63396-5.82473 7.42462-6.09879-.17763 2.38575-5.45967 5.63646-7.42462 6.09879z"/>
    <path fill="url(#l)" d="M134.17351 129.24512c.14516-2.24491 3.0707-6.0015 5.39169-6.80589-.53119 2.03219-3.16158 5.45968-5.39169 6.80589z"/>
    <path fill="url(#m)" d="M198.7412 120.00854c.41033-2.46589 5.41299-6.70862 7.20365-6.98268-.17763 2.91608-4.35481 5.99002-7.20365 6.98268z"/>
    <path fill="url(#n)" d="M187.69265 133.44357c.76388-2.81944 6.8714-9.58124 9.36917-9.76691-.3986 2.34156-7.40422 9.30458-9.36917 9.76691z"/>
    <path fill="#94b9d2" d="M132.84769 124.95829c-.42482.7955-.69419 1.59099-.88388 2.38649-.62869 0-26.70396-.04554-27.84234-.26517-3.08009-.59426-1.85616-3.0052-.97227-3.0052 1.77659.00001 22.9744.53033 29.69849.88388zm10.25305-2.03293c17.43402.33119 34.28425.39703 49.14392-.44194-2.62669 12.48506-31.92945 6.23635-52.06074 5.48008 1.07592-1.36844 2.07591-2.96467 2.91682-5.03814zm88.56512-.17678c-9.029 13.2154-22.82336 8.39169-35.6205 7.42463 2.33719-3.09883 4.85987-5.87305 8.13172-7.33624 10.67765-.02946 19.87518-.05893 27.48878-.08839zm.88388 4.68459c2.31377-4.03998 4.54312-4.41248 10.63885-4.38553 4.84469.0211 7.10052.46243 9.95564 5.09263l-20.59449-.7071zm37.74183-12.55115c-17.07047 7.69235-16.98525 8.13309-14.84924 10.25305 4.59351 4.55899 4.20396 1.88381 14.84924-10.25305z"/>
    <path fill="#fff" d="M284.25 96.25c.06167 1.018885.07494 1.924871.375 3.5 23.31867-8.587475 27.74364-9.542373 57.91789-12.875 30.42317-16.34084 131.00982-51.522089 175.83211-63.25 1.42371-8.217138 1.83448-9.355723 13-8.75C499.59663-8.9575383 373.7133 55.745541 284.25 96.25zm202.94657-81.3352-5.39169 7.689786 9.8995 2.563262 3.62392-8.662058-8.13173-1.59099zm14.05375 1.679378-5.3033 7.51301 13.70019-.353554 4.5962-7.866562-12.99309.707106z"/>
    <path fill="#957110" d="M298.57584 108.60645c7.90524-1.01795 14.42897 2.08443 6.55176 13.25891-2.1887 3.10485-3.36247 4.02296-2.66268 5.39103.31914.6225 9.67364-.36372 12.97677-6.23946 2.58764-4.603 1.31456-10.2523-.73996-12.72298-3.97959-4.78569-12.48808-8.981758-16.12589.3125z"/>
    <path fill="#67492f" d="M304.32108 100.03278c11.95944-11.546965 24.34739 2.28696 15.02602 17.76606.22759-9.53315-5.48322-16.67916-15.02602-17.76606z"/>
    <path fill="#455b2e" d="M269.625 120.625c-18.49857 15.54103-10.14627 26.53723 11.125 18.125-9.15605-4.38674-9.66031-12.30809-11.125-18.125z"/>
    <path fill="url(#o)" d="M304.125 95.5c-12.20065 9.9776-14.22382 34.37136 1 34.875-.67819 8.98138-22.47943 7.06843-27 3.5-6.28821-4.96377-9.5-20 2.125-27.875 7.26643-4.92242 15.625-8.75 23.875-10.5z"/>
    <path fill="url(#p)" d="M316.96062 93.580429c2.53183.825615 4.70153 1.771936 5.48007 3.181981 64.93439-8.584349 62.44197-.23153 62.2254 12.9047 47.94725-37.831981-37.60106-18.051113-67.70547-16.086681z"/>
    <path fill="#a9cdcd" d="M206.375 134.375c-2.68633.83544-7.50878 4.16302-12.125 7.25-2.18166.34502-4.61199.19269-7.125-.125.41165-.96836.62738-2.32858.375-4.625 2.11784-.76074 3.92376-1.98935 5.375-3.75 5.05522.19458 10.07492.40337 13.5 1.25zm32.45032-3.4063c-19.33792 11.87746-27.92798 13.57868-41.89608 11.75565 7.69522-4.08786 15.59666-9.75677 22.62742-8.75045 4.78299 3.2066 5.60286.32961 10.51821-3.44714 3.9805.67916 6.07208.41385 8.75045.44194z"/>
    <path fill="#7595bf" d="M268.75 146.25c12.03502-5.4109 26.93179-5.73451 35.375-10.125-.64421 3.22847-.43887 6.09285-3.25 10.25-11.75745.30804-21.41671-.08332-32.125-.125z"/>
    <path fill="url(#q)" d="M301 152.875c2.19787-7.6055 3.9232-4.93002 6.25-18.375 12.26347-7.42794 19.00942-16.03845 17.25-35.25 45.26069-4.301203 54.68255-4.84727 57.43515 3.98234 2.57057 8.2457-12.95704 21.2461-68.06015 44.76766 0 0 4.75-14.75 4.375-16.625s-2-.875-2.875 1.75-6.25 16.875-6.25 16.875c-2.42939 1.23727-5.22795 2.10538-8.125 2.875z"/>
    <path fill="url(#r)" d="M300.16683 123.80924c-5.9165-4.8924-3.27028-12.39141.81245-13.25707 4.99683-1.05948 8.83897 6.60163-.81245 13.25707z"/>
    <path fill="url(#s)" d="M93.125 138c-1.33855 2.61586-1.99481 4.55074-4 6 32.64147 6.68412 102.46798 11.96178 107.625 11.75 5.8111-.24377 12.80608-4.20077 16.625-7.25-25.449-8.65097-72.82665-3.68384-120.25-10.5z"/>
    <path fill="url(#t)" d="M180.84256 158.63425c-1.59422 8.14787 24.68083 9.02716 67.79126 9.80205 16.18561.28775 36.59387-4.69248 37.2141-6.26651 1.54794-3.9284 3.10435-7.62946 12.9047-7.33624-.11623-1.884-.02783-3.56335.08838-5.21491-14.21361-2.06677-20.87353.29293-32.88046-1.06066-2.51349 3.46918-5.31284 6.80629-6.98268 6.45235-2.06909-.43857-1.76955-3.71053-.97227-6.98268-3.68602-.26517-6.75128.52129-6.98268-.88388-.63223-3.83916 5.91315-2.77246 5.48008-15.55635-3.71119.34448-8.56038.43116-12.81632-.08839-8.32786 4.51791-16.78135 8.91019-25.80939 12.72792 9.51559 5.08799-18.34105 16.8825-37.03472 14.4073z"/>
    <path fill="url(#u)" d="m311.625 151.125 8.875 5.5c1.13735-3.15815 24.27979-7.7898 33.25871-12.07147 10.5322-5.02236 34.74919-16.74923 62.35543-29.21522C451.07389 99.551732 483.16695 86.643179 513.125 70.25c-2.79492-1.583333-4.12953-3.255055-5.52145-4.838388C522.03273 54.582903 522.94216 54.514658 530.625 57.5c35.43901-25.95514 21.44213-37.134911 4.375-34.625-17.82402 2.621221-146.86552 43.489334-181.81273 63.045973 32.11086-4.086908 46.39912-6.198883 46.93587 7.935702.5693 14.804315-45.64867 42.216695-88.49814 57.268325z"/>
    <path fill="#b2cca8" d="M519.90026 60.434799c-.93302 3.390161-2.57418 6.213808-4.68458 8.662058-1.94059-.711058-3.26429-2.039009-4.50781-3.447146 2.47734-2.471792 5.78636-3.90398 9.19239-5.214912zm6.18719-.707107c-.72323 3.701609-1.82638 7.498198-4.41942 11.667262-1.26396-1.007607-2.21131-2.648439-3.0052-4.596194 2.33947-4.388012 4.85064-6.200588 7.42462-7.071068z"/>
    <path fill="#afa6a9" d="M529.18104 59.904469c.76532 2.219408 1.05559 4.833252-1.23743 6.098796.07586-1.808521.45479-3.819091 1.23743-6.098796zm-11.22532 12.109204c-.61344.351731.99003 3.015621.44194 6.89429-.68734 4.864009-3.26461 8.006535-2.82843 8.485282.49769.546262 4.28843-3.790252 4.552-8.838835.11017-2.091751-1.38427-6.988681-2.16551-6.540737zm13.656-.972273c3.23127 1.420051 2.63595 4.368148 2.38648 6.45235-1.18969-.99539-1.2874-3.978078-2.38648-6.45235z"/>
    <path fill="#033583" d="M514.06663 73.516274c3.62181.335928.5246 14.25748-2.56326 13.346641-3.26316-.962546-1.33719-13.708413 2.56326-13.346641zm14.46345.380119c3.60378-.369153 1.3083 9.133484 0 9.280777-1.09341.123101-1.97093-9.078885 0-9.280777z"/>
    <path fill="#94b9d2" d="M79.349894 142.93963c2.960019-3.14733 5.348055-4.47846 9.856787-5.38083-.881994 3.70387-5.744455 5.02209-9.856787 5.38083z"/>
    <path fill="#afa6a9" d="M290.37499 159c.87225 5.54526-.31435 12.55794-2 15.625-.99163-4.98423-.60229-11.82493 2-15.625zm33.125-1.125c2.87392 2.66149 3.33585 8.04582-1.125 16.125-1.14477-1.65136-.38914-2.93551 0-8.75.16207-2.42164-.625-5.25 1.125-7.375z"/>
    <path fill="#033583" d="M295.24999 157.75c4.36676.98678 3.484 19.71928-3.875 20.75 1.02931-7.70375 2.18507-15.02812 3.875-20.75z"/>
    <path fill="#033583" d="M304.40946 155.62905c3.47728 2.76976 2.1917 19.13301-1.41422 22.27387-5.53897-6.33775-3.96103-20.28053 1.41422-22.27387zm4.06587-1.06066c6.57233-1.45831 4.01251 21.18043-.17678 21.92031-2.28305-.77731 1.30624-11.04122.17678-21.92031z"/>
    <path fill="#afa6a9" d="M316.78383 161.99301c5.7632-6.76448-5.91727-7.18575 0 0zm-.13826 3.14659c7.88452 6.14022-6.62437 7.48672 0 0zm-2.12106 7.72718c5.05609 4.72601-4.8566 7.13317 0 0z"/>
    <path fill="#033583" d="M328.37499 158.375c5.6684 3.03974 5.70819 16.34059-3.75 20.5.84947-7.6344 3.53346-13.47475 3.75-20.5z"/>
    <path fill="#957110" d="m415.24845 118.50595 2.56326-1.14905c.4804 9.59401-.00765 17.97746-.44194 26.42811-.76179.32833-1.88988.29037-3.35876-.08839-2.74362-6.53459-10.29956-11.99324-13.43503-17.76605l2.2981-1.85616c3.09005 4.1578 7.83638 7.18964 11.57887 10.16466.87739-4.93826.8388-10.33451.7955-15.73312z"/>
    <path fill="#94b9d2" d="M376.18079 136.53716c3.83737-1.64991 6.88707-3.12305 8.83884-4.77296 5.72319.03864 11.60988.04303 15.9099 1.06066 4.04346.22628 5.79619 3.97829 8.13173 6.18718-12.11327-1.45282-20.55606-.5703-32.88047-2.47488zm44.37096-.88388c-.01632 2.44859.13371 5.27158-.35355 8.66206 5.59038-1.21496 11.85129-2.20286 12.55114-7.95495-4.06586.12317-8.13173-.39918-12.19759-.70711zm26.87005 2.82843c6.73573 1.04244 8.64119-1.57011 11.31371 4.06587-10.32014-1.24458-11.28599 1.9945-11.31371-4.06587zm44.72451 7.42463c3.7123-1.10762 5.83363-1.96073 8.83883-3.88909 9.81389 2.08518 9.88716.93972 21.92031 3.18198-4.17902 6.08446-22.22562 2.61114-30.75914.70711z"/>
    <path fill="url(#v)" d="M492.27406 111.08905c-10.43288 13.51313-5.73854 26.41641 5.94975 27.09683-3.86017 6.32973-26.89885 10.78074-31.5962 7.21231-6.37929-4.84616-10.38388-12.39861 2.65533-22.74848 6.8744-5.45655 10.49848-8.04289 22.99112-11.56066z"/>
    <path fill="#957110" d="M490.32506 120.35164c7.90524-1.01795 10.27472 1.28894 7.17048 9.01627-1.41605 3.52495-3.36247 4.02296-2.66268 5.39103.31914.6225 8.12688-.82286 10.94384-6.94657 1.79214-3.89589 1.45651-12.42696-.82835-14.66752-2.83723-2.78222-8.5106-5.00427-14.62329 7.20679z"/>
    <path fill="url(#w)" d="M389.87499 130.125c2.63452-1.12024 6.77562-2.54969 8.75-4 1.3171 2.3842 1.46807 3.68614 2.125 4.75-3.29753-.41586-7.36955-.63045-10.875-.75zm15.29719-6.84608c1.84192 2.68111 4.46323 5.36223 7.95495 8.04334-.2116-3.99489-.25881-7.90758 0-11.66726-2.36414 1.63923-5.12497 2.68344-7.95495 3.62392zm15.02601-7.24784c10.12189-4.20985 18.2117-7.91169 26.51651-11.66727 9.50709 3.06789 23.43652 4.72039 31.99658 8.66206-13.33784 7.50446-19.27657 14.23171-20.85965 22.45064-13.07486-.06774-24.75532-1.05187-37.12311-3.0052.06913-4.87042-.12823-10.62738-.53033-16.44023zm83.79216 23.68807c1.41421-.87335 2.82843-1.9059 4.24264-3.71231 11.04525 4.46929 7.89603 1.32583 20.59448 5.56847-8.42603 1.29219-16.64318-.13117-24.83712-1.85616zm11.66726-15.46796-6.01041 10.25305c14.20716 3.58113 32.81632 4.52977 37.65343-2.03294l-31.64302-8.22011zm36.76955 8.92722c41.56336 9.43041 43.75239 11.13316 27.93071 15.2028-7.71551 1.98458-31.97337-.18546-49.67424-5.3033 7.65485-3.09633 15.02794-6.33354 21.74353-9.8995z"/>
    <path fill="#afa6a9" d="M399.09249 148.825c1.75613 1.12584.56953 17.33091-1.46967 17.56954-2.05229-1.09514-1.13262-16.77467 1.46967-17.56954z"/>
    <path fill="#033583" d="M402.02294 145.20762c7.37197.98678 6.84276 26.96712-2.99111 26.58363 3.68096-7.70375 3.24573-20.15464 2.99111-26.58363z"/>
    <path fill="#afa6a9" d="M411.48194 150.2182c2.87392 2.66149 3.33585 11.40458.28921 16.47855-1.14477-1.65136-.91947-2.58195-.53033-8.39644.16207-2.42164-1.50888-5.95711.24112-8.08211z"/>
    <path fill="#033583" d="M415.31087 147.53108c6.57233-2.69574 3.83573 22.41787 0 21.92031-2.10628-2.19152 1.65979-3.26304 0-21.92031z"/>
    <path fill="#afa6a9" d="M423.0654 157.31044c6.82386-5.35027 5.57322 5.89573 0 0z"/>
    <path fill="#033583" d="M431.62183 145.90937c13.08725 6.82317 7.51983 26.02169-3.39644 21.91422 6.43514-3.99398 6.6114-8.15816 6.31079-11.76006-.3006-3.60191-2.13873-7.17186-2.91435-10.15416z"/>
    <path fill="#afa6a9" d="M430.39704 150.57175c1.99004 2.48472 3.33585 7.86905-.06434 13.82691-.79122-2.00492-.03559-4.17295 0-7.33579.02892-2.42688-1.68566-4.36612.06434-6.49112z"/>
    <path fill="url(#x)" d="M492.13122 131.90141c-3.6184-4.00852-3.0935-8.6791.98923-9.54476 4.99683-1.05948 3.71244 6.42485-.98923 9.54476z"/>
    <path fill="#455b2e" d="M260.03851 151.73996c-.2661-12.35168 9.50279-7.44184 0 0zm-5.61532-5.8676c5.12559-11.55618 7.73502 2.63444 0 0zm202.59262 4.53777c4.06309-13.05618 9.11002-1.17806 0 0z"/>
  </g>
</svg>